<svg width="512" height="512" viewBox="0 0 512 512" fill="none" xmlns="http://www.w3.org/2000/svg">
    <style>
        @media (prefers-color-scheme: dark) {
            .bg { fill: #292929 }
            .fg { fill: #E6E6E6 }
        }
    </style>
    <g clip-path="url(#clip0_34_123)">
        <g clip-path="url(#clip1_34_123)">
            <path class="bg" d="M308.218 8.12915L61.4209 150.711V363.289L308.218 504.575V371.714H448.135V142.286H308.218V8.12915Z" fill="#E6E6E6"/>
            <path class="fg" d="M305.493 15.0142V146.635H445.767V367.358H305.493V498.986L284.452 486.85L77.2955 367.358L74.0411 365.48L67.0274 361.437V152.556L77.2955 146.635L81.0548 144.47L98.3366 134.499L284.452 27.1504L305.493 15.0142ZM305.493 1C303.073 1 300.647 1.62363 298.48 2.8779L277.438 15.0142L91.3229 122.363L74.0411 132.334L70.2888 134.492L60.0137 140.42C55.6722 142.921 53 147.553 53 152.556V361.437C53 366.447 55.6722 371.072 60.0137 373.573L67.0274 377.616L70.2747 379.494L277.431 498.986L298.472 511.122C300.64 512.376 303.066 513 305.486 513C307.906 513 310.333 512.376 312.5 511.122C316.841 508.621 319.514 503.989 319.514 498.986V381.372H445.76C453.51 381.372 459.788 375.101 459.788 367.358V146.635C459.788 138.892 453.51 132.621 445.76 132.621H319.514V15.0142C319.514 10.0041 316.841 5.37942 312.5 2.8779C310.333 1.62363 307.906 1 305.486 1L305.493 1Z" fill="#292929"/>
            <path class="fg" d="M291.466 39.2866V146.635H105.35L291.466 39.2866Z" fill="#292929"/>
            <path class="fg" d="M431.74 160.649V353.344H305.493V273.919L298.479 269.875L109.11 160.649H431.74Z" fill="#292929"/>
            <path class="fg" d="M291.466 282.012V474.713L81.0548 353.344V160.649L291.466 282.012Z" fill="#292929"/>
        </g>
    </g>
    <defs>
        <clipPath id="clip0_34_123">
            <rect width="512" height="512" fill="white"/>
        </clipPath>
        <clipPath id="clip1_34_123">
            <rect width="406.795" height="512" fill="white" transform="translate(53 1)"/>
        </clipPath>
    </defs>
</svg>
